<?xml version="1.0" standalone="no"?>
<!DOCTYPE svg PUBLIC "-//W3C//DTD SVG 20010904//EN"
 "http://www.w3.org/TR/2001/REC-SVG-20010904/DTD/svg10.dtd">
<svg version="1.0" xmlns="http://www.w3.org/2000/svg"
 width="192.000000pt" height="192.000000pt" viewBox="0 0 192.000000 192.000000"
 preserveAspectRatio="xMidYMid meet">
<metadata>
Created by potrace 1.14, written by Peter Selinger 2001-2017
</metadata>
<g transform="translate(0.000000,192.000000) scale(0.100000,-0.100000)"
fill="#000000" stroke="none">
<path d="M912 1340 c-22 -21 -22 -24 -22 -365 l0 -344 22 -15 c33 -24 84 -20
102 6 14 19 16 71 16 360 0 325 -1 339 -20 358 -26 26 -70 26 -98 0z"/>
<path d="M464 1209 c-17 -19 -18 -41 -18 -295 0 -258 2 -276 20 -294 10 -10
26 -19 34 -20 85 -11 90 5 90 315 0 299 -4 314 -76 315 -19 0 -38 -8 -50 -21z"/>
<path d="M1356 1197 l-26 -26 0 -255 c0 -140 4 -266 9 -279 17 -43 79 -52 116
-16 18 18 19 33 19 288 0 296 0 295 -63 307 -23 5 -35 1 -55 -19z"/>
<path d="M691 1053 c-21 -17 -22 -26 -23 -216 -1 -183 0 -200 18 -217 18 -17
41 -24 72 -21 6 0 21 10 32 21 19 19 20 33 20 215 0 182 -1 196 -20 215 -25
25 -71 26 -99 3z"/>
<path d="M1134 1045 c-24 -24 -24 -27 -24 -215 0 -177 1 -191 20 -210 31 -31
75 -30 105 3 19 21 20 35 18 211 -1 169 -3 190 -20 207 -30 30 -71 32 -99 4z"/>
<path d="M258 903 c-9 -2 -20 -16 -25 -31 -12 -35 -10 -222 2 -244 15 -25 55
-37 87 -26 36 13 46 50 46 165 0 127 -25 159 -110 136z"/>
<path d="M1588 903 c-9 -2 -21 -16 -26 -31 -12 -30 -10 -217 2 -244 17 -38 93
-39 120 -2 7 9 11 60 11 131 -1 108 -3 117 -24 134 -22 18 -47 22 -83 12z"/>
<path d="M50 731 c-30 -8 -50 -46 -43 -82 5 -29 48 -58 78 -53 27 4 64 49 60
71 -2 10 -4 23 -4 28 -1 10 -54 47 -63 44 -1 -1 -14 -4 -28 -8z"/>
<path d="M1813 728 c-20 -10 -35 -34 -38 -63 -2 -18 15 -45 39 -60 47 -31 117
24 100 78 -14 45 -59 65 -101 45z"/>
</g>
</svg>
