<svg width="30" height="30" viewBox="0 0 30 30" fill="none" xmlns="http://www.w3.org/2000/svg">
<path d="M14.7123 29.0847C22.7438 29.0847 29.2547 22.5739 29.2547 14.5424C29.2547 6.51084 22.7438 0 14.7123 0C6.68076 0 0.169922 6.51084 0.169922 14.5424C0.169922 22.5739 6.68076 29.0847 14.7123 29.0847Z" fill="#F8F8F8"/>
<path d="M14.6791 10.242C14.9832 10.242 15.969 10.0491 16.7338 8.9377C17.388 7.97324 17.3143 6.89856 17.3143 6.89856C17.3143 6.89856 16.181 6.81589 15.1859 8.04673C14.4672 8.94689 14.5225 10.2328 14.5225 10.2328C14.5225 10.2328 14.5778 10.242 14.6791 10.242Z" fill="#3C3C3C"/>
<path d="M20.3636 17.3055C20.4189 17.1494 20.4557 17.0575 20.4557 17.0575C20.4557 17.0575 20.4557 17.0575 20.4465 17.0575C20.4465 17.0575 20.4373 17.0575 20.4281 17.0484C20.3728 17.03 20.2438 16.9749 20.078 16.8738C19.7463 16.6809 19.2856 16.3227 18.9539 15.744C18.7419 15.3766 18.5945 14.9174 18.5577 14.3479C18.5392 14.0631 18.5669 13.7876 18.6222 13.5396V13.5304C18.6406 13.4477 18.659 13.3742 18.6867 13.2916C18.9815 12.3363 19.6725 11.7117 19.949 11.5004C20.0227 11.4453 20.0595 11.4177 20.0595 11.4177C20.0595 11.4177 19.175 10.0491 17.5073 10.0491C16.0699 10.0491 15.5355 10.6921 14.7708 10.6921C13.831 10.6921 13.6835 10.0951 12.2922 10.0951C11.5736 10.0951 10.5693 10.3706 9.82293 11.3351C9.23324 12.0883 9.01211 12.9793 8.91997 13.6314C8.86469 14.0723 8.84626 14.5499 8.90154 15.0827C8.90154 15.1194 8.91076 15.1562 8.91076 15.2021C8.96604 15.7349 9.10425 16.3043 9.29774 16.8738C9.29774 16.883 9.30695 16.9014 9.31617 16.9106C9.33459 16.9749 9.36224 17.0484 9.38988 17.1127C9.39909 17.1402 9.41752 17.1769 9.42673 17.2045C9.43595 17.2321 9.44516 17.2688 9.46359 17.2964C9.64787 17.774 9.85978 18.2333 10.1086 18.665C10.8272 19.9325 11.7578 20.8878 12.6332 20.8878C13.6283 20.8878 13.9415 20.2448 14.9366 20.254C16.1989 20.2632 16.549 21.0623 17.6086 20.8511C18.3181 20.7133 19.1658 19.7121 19.7094 18.7568C19.7278 18.7201 19.7463 18.6925 19.7647 18.665C20.0227 18.1139 20.2438 17.5995 20.3636 17.3055Z" fill="#3C3C3C"/>
</svg>
