<svg width="33" height="33" viewBox="0 0 33 33" fill="none" xmlns="http://www.w3.org/2000/svg">
<path d="M16.5424 31.0847C24.5739 31.0847 31.0847 24.5739 31.0847 16.5424C31.0847 8.51084 24.5739 2 16.5424 2C8.51084 2 2 8.51084 2 16.5424C2 24.5739 8.51084 31.0847 16.5424 31.0847Z" stroke="url(#paint0_linear_279_309)" stroke-width="2.4576"/>
<path fill-rule="evenodd" clip-rule="evenodd" d="M15.6915 21.837H11.5854V11.2478H15.6915H18.4208C19.7897 11.2478 20.9232 12.311 21.0106 13.6771L21.048 14.2607C21.1092 15.2169 20.3837 16.0416 19.4276 16.1028C19.3907 16.1052 19.3537 16.1064 19.3167 16.1064H17.5041H19.3819C20.6137 16.1064 21.6124 17.105 21.6124 18.3369C21.6124 18.3933 21.6102 18.4497 21.6059 18.5059L21.5705 18.9717C21.4477 20.5881 20.1003 21.837 18.4792 21.837H15.6915ZM15.567 17.6013V18.9717H16.7482C17.1267 18.9717 17.4334 18.6649 17.4334 18.2865C17.4334 17.9081 17.1267 17.6013 16.7482 17.6013H15.567ZM15.567 14.3623V15.3589H16.6863C16.9615 15.3589 17.1846 15.1358 17.1846 14.8606C17.1846 14.5854 16.9615 14.3623 16.6863 14.3623H15.567Z" fill="url(#paint1_linear_279_309)"/>
<defs>
<linearGradient id="paint0_linear_279_309" x1="4.88291" y1="25.5259" x2="26.5881" y2="6.62645" gradientUnits="userSpaceOnUse">
<stop stop-color="#FF2D7C"/>
<stop offset="1" stop-color="#FF2732"/>
</linearGradient>
<linearGradient id="paint1_linear_279_309" x1="11.5854" y1="21.837" x2="20.6108" y2="12.2512" gradientUnits="userSpaceOnUse">
<stop stop-color="#FF2F8A"/>
<stop offset="1" stop-color="#FF272E"/>
</linearGradient>
</defs>
</svg>
