<svg width="30" height="30" viewBox="0 0 30 30" fill="none" xmlns="http://www.w3.org/2000/svg">
<path d="M14.7973 29.0847C22.8288 29.0847 29.3396 22.5739 29.3396 14.5424C29.3396 6.51084 22.8288 0 14.7973 0C6.76573 0 0.254883 6.51084 0.254883 14.5424C0.254883 22.5739 6.76573 29.0847 14.7973 29.0847Z" fill="#40DD78"/>
<path d="M20.5094 20.0455C20.28 20.4547 19.9388 20.5055 19.5684 20.2769C17.9493 19.2748 16.1009 18.6119 14.1035 18.394C12.0526 18.1705 10.0627 18.4411 8.23872 19.1081C8.04311 19.1799 7.63004 19.1757 7.50173 18.6067C7.37332 18.0367 7.69572 17.7581 7.87132 17.6955C9.8599 16.9832 12.0219 16.6916 14.2513 16.9344C16.4418 17.1733 18.5059 17.8344 20.2436 18.9949C20.5176 19.1779 20.7384 19.636 20.5094 20.0455ZM21.94 16.7796C21.7884 16.9571 21.5687 17.0679 21.3239 17.0413C21.2561 17.0339 21.1967 17.0045 21.1367 16.9796C19.1479 15.7972 16.8996 15.01 14.473 14.7455C12.0644 14.4835 9.72329 14.762 7.55426 15.4778C7.47656 15.4973 7.39668 15.5126 7.31269 15.5033C7.06331 15.4762 6.86779 15.3153 6.75635 15.1028L6.66207 14.6581C6.68695 14.4354 6.80687 14.2532 6.97103 14.1324C9.36342 13.3187 11.9541 12.9952 14.6212 13.2857C17.2875 13.576 19.7551 14.4485 21.9317 15.7614C22.0711 15.9131 22.1487 16.1225 22.1302 16.3458L21.94 16.7796ZM6.48304 9.68583C9.19335 8.88159 12.0902 8.58271 15.0649 8.90703C18.0126 9.22822 20.7627 10.1296 23.234 11.4795C23.5645 11.7018 23.7722 12.0914 23.7285 12.5253C23.6661 13.1405 23.1342 13.5859 22.5418 13.5215C22.4589 13.5123 22.3826 13.4848 22.3076 13.4573C20.0521 12.2169 17.5377 11.3892 14.8433 11.0956C12.1469 10.8016 9.51948 11.0696 7.06359 11.7992C6.986 11.8084 6.90821 11.8183 6.82708 11.8093C6.2348 11.7446 5.804 11.1942 5.86635 10.5793C5.90734 10.1745 6.15272 9.84647 6.48304 9.68583Z" fill="white"/>
</svg>
