<svg width="30" height="30" viewBox="0 0 30 30" fill="none" xmlns="http://www.w3.org/2000/svg">
<path d="M14.6273 29.0847C22.6589 29.0847 29.1697 22.5739 29.1697 14.5424C29.1697 6.51084 22.6589 0 14.6273 0C6.5958 0 0.0849609 6.51084 0.0849609 14.5424C0.0849609 22.5739 6.5958 29.0847 14.6273 29.0847Z" fill="#E83323"/>
<path d="M14.6277 21.6271C18.5405 21.6271 21.7125 18.4552 21.7125 14.5424C21.7125 10.6296 18.5405 7.45764 14.6277 7.45764C10.7149 7.45764 7.54297 10.6296 7.54297 14.5424C7.54297 18.4552 10.7149 21.6271 14.6277 21.6271Z" stroke="white" stroke-width="0.604068"/>
<path fill-rule="evenodd" clip-rule="evenodd" d="M12.7632 11.9322L17.2378 14.9152L12.7632 17.8983V11.9322Z" fill="white"/>
</svg>
