<svg width="114" height="201" viewBox="0 0 114 201" fill="none" xmlns="http://www.w3.org/2000/svg">
<path d="M193.321 47.3491C193.875 48.3079 194.414 49.2761 194.938 50.2534C193.986 49.6305 193.35 48.565 193.321 47.3491Z" fill="url(#paint0_linear_102_70)"/>
<path d="M173.777 22.7055C175.44 24.2665 177.053 25.8799 178.614 27.5433C178.011 28.6588 176.83 29.4165 175.473 29.4165C173.501 29.4165 171.903 27.8184 171.903 25.847C171.903 24.4896 172.661 23.3091 173.777 22.7055Z" fill="url(#paint1_linear_102_70)"/>
<path d="M151.066 6.38158C152.044 6.90589 153.012 7.44493 153.971 7.99841C152.755 7.97003 151.689 7.33368 151.066 6.38158Z" fill="url(#paint2_linear_102_70)"/>
<path d="M47.0548 7.99841C48.0136 7.44493 48.9818 6.90589 49.9591 6.38158C49.3361 7.33368 48.2706 7.97003 47.0548 7.99841Z" fill="url(#paint3_linear_102_70)"/>
<path d="M22.4112 27.5433C23.9721 25.8799 25.5856 24.2665 27.249 22.7055C28.3645 23.3091 29.1222 24.4896 29.1222 25.847C29.1222 27.8184 27.5241 29.4165 25.5527 29.4165C24.1953 29.4165 23.0148 28.6588 22.4112 27.5433Z" fill="url(#paint4_linear_102_70)"/>
<path d="M6.08726 50.2534C6.61158 49.2761 7.15062 48.3079 7.7041 47.3491C7.67572 48.565 7.03937 49.6305 6.08726 50.2534Z" fill="url(#paint5_linear_102_70)"/>
<path d="M194.938 151.361C194.414 152.338 193.875 153.306 193.321 154.265C193.35 153.049 193.986 151.984 194.938 151.361Z" fill="url(#paint6_linear_102_70)"/>
<path d="M178.614 174.071C178.011 172.955 176.83 172.198 175.473 172.198C173.501 172.198 171.903 173.796 171.903 175.767C171.903 177.125 172.661 178.305 173.777 178.909C175.44 177.348 177.053 175.734 178.614 174.071Z" fill="url(#paint7_linear_102_70)"/>
<path d="M153.971 193.616C152.755 193.644 151.689 194.28 151.066 195.233C152.044 194.708 153.012 194.169 153.971 193.616Z" fill="url(#paint8_linear_102_70)"/>
<path d="M49.9591 195.233C49.3361 194.28 48.2706 193.644 47.0548 193.616C48.0136 194.169 48.9818 194.708 49.9591 195.233Z" fill="url(#paint9_linear_102_70)"/>
<path d="M27.249 178.909C28.3645 178.305 29.1222 177.125 29.1222 175.767C29.1222 173.796 27.5241 172.198 25.5527 172.198C24.1953 172.198 23.0148 172.955 22.4112 174.071C23.9721 175.734 25.5856 177.348 27.249 178.909Z" fill="url(#paint10_linear_102_70)"/>
<path d="M7.7041 154.265C7.67572 153.049 7.03937 151.984 6.08726 151.361C6.61158 152.338 7.15062 153.306 7.7041 154.265Z" fill="url(#paint11_linear_102_70)"/>
<path d="M71.9565 4.42988C71.9565 6.40127 70.3584 7.9994 68.387 7.9994C66.4156 7.9994 64.8175 6.40127 64.8175 4.42988C64.8175 2.45848 66.4156 0.860352 68.387 0.860352C70.3584 0.860352 71.9565 2.45848 71.9565 4.42988Z" fill="url(#paint12_linear_102_70)"/>
<path d="M93.3737 4.42988C93.3737 6.40127 91.7756 7.9994 89.8042 7.9994C87.8328 7.9994 86.2346 6.40127 86.2346 4.42988C86.2346 2.45848 87.8328 0.860352 89.8042 0.860352C91.7756 0.860352 93.3737 2.45848 93.3737 4.42988Z" fill="url(#paint13_linear_102_70)"/>
<path d="M114.791 4.42988C114.791 6.40127 113.193 7.9994 111.221 7.9994C109.25 7.9994 107.652 6.40127 107.652 4.42988C107.652 2.45848 109.25 0.860352 111.221 0.860352C113.193 0.860352 114.791 2.45848 114.791 4.42988Z" fill="url(#paint14_linear_102_70)"/>
<path d="M136.208 4.42988C136.208 6.40127 134.61 7.9994 132.638 7.9994C130.667 7.9994 129.069 6.40127 129.069 4.42988C129.069 2.45848 130.667 0.860352 132.638 0.860352C134.61 0.860352 136.208 2.45848 136.208 4.42988Z" fill="url(#paint15_linear_102_70)"/>
<path d="M50.5394 25.847C50.5394 27.8184 48.9413 29.4165 46.9699 29.4165C44.9985 29.4165 43.4003 27.8184 43.4003 25.847C43.4003 23.8756 44.9985 22.2775 46.9699 22.2775C48.9413 22.2775 50.5394 23.8756 50.5394 25.847Z" fill="url(#paint16_linear_102_70)"/>
<path d="M71.9565 25.847C71.9565 27.8184 70.3584 29.4165 68.387 29.4165C66.4156 29.4165 64.8175 27.8184 64.8175 25.847C64.8175 23.8756 66.4156 22.2775 68.387 22.2775C70.3584 22.2775 71.9565 23.8756 71.9565 25.847Z" fill="url(#paint17_linear_102_70)"/>
<path d="M93.3737 25.847C93.3737 27.8184 91.7756 29.4165 89.8042 29.4165C87.8328 29.4165 86.2346 27.8184 86.2346 25.847C86.2346 23.8756 87.8328 22.2775 89.8042 22.2775C91.7756 22.2775 93.3737 23.8756 93.3737 25.847Z" fill="url(#paint18_linear_102_70)"/>
<path d="M114.791 25.847C114.791 27.8184 113.193 29.4165 111.221 29.4165C109.25 29.4165 107.652 27.8184 107.652 25.847C107.652 23.8756 109.25 22.2775 111.221 22.2775C113.193 22.2775 114.791 23.8756 114.791 25.847Z" fill="url(#paint19_linear_102_70)"/>
<path d="M136.208 25.847C136.208 27.8184 134.61 29.4165 132.638 29.4165C130.667 29.4165 129.069 27.8184 129.069 25.847C129.069 23.8756 130.667 22.2775 132.638 22.2775C134.61 22.2775 136.208 23.8756 136.208 25.847Z" fill="url(#paint20_linear_102_70)"/>
<path d="M157.625 25.847C157.625 27.8184 156.027 29.4165 154.056 29.4165C152.084 29.4165 150.486 27.8184 150.486 25.847C150.486 23.8756 152.084 22.2775 154.056 22.2775C156.027 22.2775 157.625 23.8756 157.625 25.847Z" fill="url(#paint21_linear_102_70)"/>
<path d="M29.1222 47.2642C29.1222 49.2356 27.5241 50.8337 25.5527 50.8337C23.5813 50.8337 21.9832 49.2356 21.9832 47.2642C21.9832 45.2928 23.5813 43.6946 25.5527 43.6946C27.5241 43.6946 29.1222 45.2928 29.1222 47.2642Z" fill="url(#paint22_linear_102_70)"/>
<path d="M50.5394 47.2642C50.5394 49.2356 48.9413 50.8337 46.9699 50.8337C44.9985 50.8337 43.4003 49.2356 43.4003 47.2642C43.4003 45.2928 44.9985 43.6946 46.9699 43.6946C48.9413 43.6946 50.5394 45.2928 50.5394 47.2642Z" fill="url(#paint23_linear_102_70)"/>
<path d="M71.9565 47.2642C71.9565 49.2356 70.3584 50.8337 68.387 50.8337C66.4156 50.8337 64.8175 49.2356 64.8175 47.2642C64.8175 45.2928 66.4156 43.6946 68.387 43.6946C70.3584 43.6946 71.9565 45.2928 71.9565 47.2642Z" fill="url(#paint24_linear_102_70)"/>
<path d="M93.3737 47.2642C93.3737 49.2356 91.7756 50.8337 89.8042 50.8337C87.8328 50.8337 86.2346 49.2356 86.2346 47.2642C86.2346 45.2928 87.8328 43.6946 89.8042 43.6946C91.7756 43.6946 93.3737 45.2928 93.3737 47.2642Z" fill="url(#paint25_linear_102_70)"/>
<path d="M114.791 47.2642C114.791 49.2356 113.193 50.8337 111.221 50.8337C109.25 50.8337 107.652 49.2356 107.652 47.2642C107.652 45.2928 109.25 43.6946 111.221 43.6946C113.193 43.6946 114.791 45.2928 114.791 47.2642Z" fill="url(#paint26_linear_102_70)"/>
<path d="M136.208 47.2642C136.208 49.2356 134.61 50.8337 132.638 50.8337C130.667 50.8337 129.069 49.2356 129.069 47.2642C129.069 45.2928 130.667 43.6946 132.638 43.6946C134.61 43.6946 136.208 45.2928 136.208 47.2642Z" fill="url(#paint27_linear_102_70)"/>
<path d="M157.625 47.2642C157.625 49.2356 156.027 50.8337 154.056 50.8337C152.084 50.8337 150.486 49.2356 150.486 47.2642C150.486 45.2928 152.084 43.6946 154.056 43.6946C156.027 43.6946 157.625 45.2928 157.625 47.2642Z" fill="url(#paint28_linear_102_70)"/>
<path d="M179.042 47.2642C179.042 49.2356 177.444 50.8337 175.473 50.8337C173.501 50.8337 171.903 49.2356 171.903 47.2642C171.903 45.2928 173.501 43.6946 175.473 43.6946C177.444 43.6946 179.042 45.2928 179.042 47.2642Z" fill="url(#paint29_linear_102_70)"/>
<path d="M7.70509 68.6813C7.70509 70.6527 6.10696 72.2508 4.13556 72.2508C2.16417 72.2508 0.56604 70.6527 0.56604 68.6813C0.56604 66.7099 2.16417 65.1118 4.13556 65.1118C6.10696 65.1118 7.70509 66.7099 7.70509 68.6813Z" fill="url(#paint30_linear_102_70)"/>
<path d="M29.1222 68.6813C29.1222 70.6527 27.5241 72.2508 25.5527 72.2508C23.5813 72.2508 21.9832 70.6527 21.9832 68.6813C21.9832 66.7099 23.5813 65.1118 25.5527 65.1118C27.5241 65.1118 29.1222 66.7099 29.1222 68.6813Z" fill="url(#paint31_linear_102_70)"/>
<path d="M50.5394 68.6813C50.5394 70.6527 48.9413 72.2508 46.9699 72.2508C44.9985 72.2508 43.4003 70.6527 43.4003 68.6813C43.4003 66.7099 44.9985 65.1118 46.9699 65.1118C48.9413 65.1118 50.5394 66.7099 50.5394 68.6813Z" fill="url(#paint32_linear_102_70)"/>
<path d="M71.9565 68.6813C71.9565 70.6527 70.3584 72.2508 68.387 72.2508C66.4156 72.2508 64.8175 70.6527 64.8175 68.6813C64.8175 66.7099 66.4156 65.1118 68.387 65.1118C70.3584 65.1118 71.9565 66.7099 71.9565 68.6813Z" fill="url(#paint33_linear_102_70)"/>
<path d="M93.3737 68.6813C93.3737 70.6527 91.7756 72.2508 89.8042 72.2508C87.8328 72.2508 86.2346 70.6527 86.2346 68.6813C86.2346 66.7099 87.8328 65.1118 89.8042 65.1118C91.7756 65.1118 93.3737 66.7099 93.3737 68.6813Z" fill="url(#paint34_linear_102_70)"/>
<path d="M114.791 68.6813C114.791 70.6527 113.193 72.2508 111.221 72.2508C109.25 72.2508 107.652 70.6527 107.652 68.6813C107.652 66.7099 109.25 65.1118 111.221 65.1118C113.193 65.1118 114.791 66.7099 114.791 68.6813Z" fill="url(#paint35_linear_102_70)"/>
<path d="M136.208 68.6813C136.208 70.6527 134.61 72.2508 132.638 72.2508C130.667 72.2508 129.069 70.6527 129.069 68.6813C129.069 66.7099 130.667 65.1118 132.638 65.1118C134.61 65.1118 136.208 66.7099 136.208 68.6813Z" fill="url(#paint36_linear_102_70)"/>
<path d="M157.625 68.6813C157.625 70.6527 156.027 72.2508 154.056 72.2508C152.084 72.2508 150.486 70.6527 150.486 68.6813C150.486 66.7099 152.084 65.1118 154.056 65.1118C156.027 65.1118 157.625 66.7099 157.625 68.6813Z" fill="url(#paint37_linear_102_70)"/>
<path d="M179.042 68.6813C179.042 70.6527 177.444 72.2508 175.473 72.2508C173.501 72.2508 171.903 70.6527 171.903 68.6813C171.903 66.7099 173.501 65.1118 175.473 65.1118C177.444 65.1118 179.042 66.7099 179.042 68.6813Z" fill="url(#paint38_linear_102_70)"/>
<path d="M200.459 68.6813C200.459 70.6527 198.861 72.2508 196.89 72.2508C194.919 72.2508 193.32 70.6527 193.32 68.6813C193.32 66.7099 194.919 65.1118 196.89 65.1118C198.861 65.1118 200.459 66.7099 200.459 68.6813Z" fill="url(#paint39_linear_102_70)"/>
<path d="M7.70509 90.0985C7.70509 92.0699 6.10696 93.668 4.13556 93.668C2.16417 93.668 0.56604 92.0699 0.56604 90.0985C0.56604 88.1271 2.16417 86.5289 4.13556 86.5289C6.10696 86.5289 7.70509 88.1271 7.70509 90.0985Z" fill="url(#paint40_linear_102_70)"/>
<path d="M29.1222 90.0985C29.1222 92.0699 27.5241 93.668 25.5527 93.668C23.5813 93.668 21.9832 92.0699 21.9832 90.0985C21.9832 88.1271 23.5813 86.5289 25.5527 86.5289C27.5241 86.5289 29.1222 88.1271 29.1222 90.0985Z" fill="url(#paint41_linear_102_70)"/>
<path d="M50.5394 90.0985C50.5394 92.0699 48.9413 93.668 46.9699 93.668C44.9985 93.668 43.4003 92.0699 43.4003 90.0985C43.4003 88.1271 44.9985 86.5289 46.9699 86.5289C48.9413 86.5289 50.5394 88.1271 50.5394 90.0985Z" fill="url(#paint42_linear_102_70)"/>
<path d="M71.9565 90.0985C71.9565 92.0699 70.3584 93.668 68.387 93.668C66.4156 93.668 64.8175 92.0699 64.8175 90.0985C64.8175 88.1271 66.4156 86.5289 68.387 86.5289C70.3584 86.5289 71.9565 88.1271 71.9565 90.0985Z" fill="url(#paint43_linear_102_70)"/>
<path d="M93.3737 90.0985C93.3737 92.0699 91.7756 93.668 89.8042 93.668C87.8328 93.668 86.2346 92.0699 86.2346 90.0985C86.2346 88.1271 87.8328 86.5289 89.8042 86.5289C91.7756 86.5289 93.3737 88.1271 93.3737 90.0985Z" fill="url(#paint44_linear_102_70)"/>
<path d="M114.791 90.0985C114.791 92.0699 113.193 93.668 111.221 93.668C109.25 93.668 107.652 92.0699 107.652 90.0985C107.652 88.1271 109.25 86.5289 111.221 86.5289C113.193 86.5289 114.791 88.1271 114.791 90.0985Z" fill="url(#paint45_linear_102_70)"/>
<path d="M136.208 90.0985C136.208 92.0699 134.61 93.668 132.638 93.668C130.667 93.668 129.069 92.0699 129.069 90.0985C129.069 88.1271 130.667 86.5289 132.638 86.5289C134.61 86.5289 136.208 88.1271 136.208 90.0985Z" fill="url(#paint46_linear_102_70)"/>
<path d="M157.625 90.0985C157.625 92.0699 156.027 93.668 154.056 93.668C152.084 93.668 150.486 92.0699 150.486 90.0985C150.486 88.1271 152.084 86.5289 154.056 86.5289C156.027 86.5289 157.625 88.1271 157.625 90.0985Z" fill="url(#paint47_linear_102_70)"/>
<path d="M179.042 90.0985C179.042 92.0699 177.444 93.668 175.473 93.668C173.501 93.668 171.903 92.0699 171.903 90.0985C171.903 88.1271 173.501 86.5289 175.473 86.5289C177.444 86.5289 179.042 88.1271 179.042 90.0985Z" fill="url(#paint48_linear_102_70)"/>
<path d="M200.459 90.0985C200.459 92.0699 198.861 93.668 196.89 93.668C194.919 93.668 193.32 92.0699 193.32 90.0985C193.32 88.1271 194.919 86.5289 196.89 86.5289C198.861 86.5289 200.459 88.1271 200.459 90.0985Z" fill="url(#paint49_linear_102_70)"/>
<path d="M7.70509 111.516C7.70509 113.487 6.10696 115.085 4.13556 115.085C2.16417 115.085 0.56604 113.487 0.56604 111.516C0.56604 109.544 2.16417 107.946 4.13556 107.946C6.10696 107.946 7.70509 109.544 7.70509 111.516Z" fill="url(#paint50_linear_102_70)"/>
<path d="M29.1222 111.516C29.1222 113.487 27.5241 115.085 25.5527 115.085C23.5813 115.085 21.9832 113.487 21.9832 111.516C21.9832 109.544 23.5813 107.946 25.5527 107.946C27.5241 107.946 29.1222 109.544 29.1222 111.516Z" fill="url(#paint51_linear_102_70)"/>
<path d="M50.5394 111.516C50.5394 113.487 48.9413 115.085 46.9699 115.085C44.9985 115.085 43.4003 113.487 43.4003 111.516C43.4003 109.544 44.9985 107.946 46.9699 107.946C48.9413 107.946 50.5394 109.544 50.5394 111.516Z" fill="url(#paint52_linear_102_70)"/>
<path d="M71.9565 111.516C71.9565 113.487 70.3584 115.085 68.387 115.085C66.4156 115.085 64.8175 113.487 64.8175 111.516C64.8175 109.544 66.4156 107.946 68.387 107.946C70.3584 107.946 71.9565 109.544 71.9565 111.516Z" fill="url(#paint53_linear_102_70)"/>
<path d="M93.3737 111.516C93.3737 113.487 91.7756 115.085 89.8042 115.085C87.8328 115.085 86.2346 113.487 86.2346 111.516C86.2346 109.544 87.8328 107.946 89.8042 107.946C91.7756 107.946 93.3737 109.544 93.3737 111.516Z" fill="url(#paint54_linear_102_70)"/>
<path d="M114.791 111.516C114.791 113.487 113.193 115.085 111.221 115.085C109.25 115.085 107.652 113.487 107.652 111.516C107.652 109.544 109.25 107.946 111.221 107.946C113.193 107.946 114.791 109.544 114.791 111.516Z" fill="url(#paint55_linear_102_70)"/>
<path d="M136.208 111.516C136.208 113.487 134.61 115.085 132.638 115.085C130.667 115.085 129.069 113.487 129.069 111.516C129.069 109.544 130.667 107.946 132.638 107.946C134.61 107.946 136.208 109.544 136.208 111.516Z" fill="url(#paint56_linear_102_70)"/>
<path d="M157.625 111.516C157.625 113.487 156.027 115.085 154.056 115.085C152.084 115.085 150.486 113.487 150.486 111.516C150.486 109.544 152.084 107.946 154.056 107.946C156.027 107.946 157.625 109.544 157.625 111.516Z" fill="url(#paint57_linear_102_70)"/>
<path d="M179.042 111.516C179.042 113.487 177.444 115.085 175.473 115.085C173.501 115.085 171.903 113.487 171.903 111.516C171.903 109.544 173.501 107.946 175.473 107.946C177.444 107.946 179.042 109.544 179.042 111.516Z" fill="url(#paint58_linear_102_70)"/>
<path d="M200.459 111.516C200.459 113.487 198.861 115.085 196.89 115.085C194.919 115.085 193.32 113.487 193.32 111.516C193.32 109.544 194.919 107.946 196.89 107.946C198.861 107.946 200.459 109.544 200.459 111.516Z" fill="url(#paint59_linear_102_70)"/>
<path d="M7.70509 132.933C7.70509 134.904 6.10696 136.502 4.13556 136.502C2.16417 136.502 0.56604 134.904 0.56604 132.933C0.56604 130.961 2.16417 129.363 4.13556 129.363C6.10696 129.363 7.70509 130.961 7.70509 132.933Z" fill="url(#paint60_linear_102_70)"/>
<path d="M29.1222 132.933C29.1222 134.904 27.5241 136.502 25.5527 136.502C23.5813 136.502 21.9832 134.904 21.9832 132.933C21.9832 130.961 23.5813 129.363 25.5527 129.363C27.5241 129.363 29.1222 130.961 29.1222 132.933Z" fill="url(#paint61_linear_102_70)"/>
<path d="M50.5394 132.933C50.5394 134.904 48.9413 136.502 46.9699 136.502C44.9985 136.502 43.4003 134.904 43.4003 132.933C43.4003 130.961 44.9985 129.363 46.9699 129.363C48.9413 129.363 50.5394 130.961 50.5394 132.933Z" fill="url(#paint62_linear_102_70)"/>
<path d="M71.9565 132.933C71.9565 134.904 70.3584 136.502 68.387 136.502C66.4156 136.502 64.8175 134.904 64.8175 132.933C64.8175 130.961 66.4156 129.363 68.387 129.363C70.3584 129.363 71.9565 130.961 71.9565 132.933Z" fill="url(#paint63_linear_102_70)"/>
<path d="M93.3737 132.933C93.3737 134.904 91.7756 136.502 89.8042 136.502C87.8328 136.502 86.2346 134.904 86.2346 132.933C86.2346 130.961 87.8328 129.363 89.8042 129.363C91.7756 129.363 93.3737 130.961 93.3737 132.933Z" fill="url(#paint64_linear_102_70)"/>
<path d="M114.791 132.933C114.791 134.904 113.193 136.502 111.221 136.502C109.25 136.502 107.652 134.904 107.652 132.933C107.652 130.961 109.25 129.363 111.221 129.363C113.193 129.363 114.791 130.961 114.791 132.933Z" fill="url(#paint65_linear_102_70)"/>
<path d="M136.208 132.933C136.208 134.904 134.61 136.502 132.638 136.502C130.667 136.502 129.069 134.904 129.069 132.933C129.069 130.961 130.667 129.363 132.638 129.363C134.61 129.363 136.208 130.961 136.208 132.933Z" fill="url(#paint66_linear_102_70)"/>
<path d="M157.625 132.933C157.625 134.904 156.027 136.502 154.056 136.502C152.084 136.502 150.486 134.904 150.486 132.933C150.486 130.961 152.084 129.363 154.056 129.363C156.027 129.363 157.625 130.961 157.625 132.933Z" fill="url(#paint67_linear_102_70)"/>
<path d="M179.042 132.933C179.042 134.904 177.444 136.502 175.473 136.502C173.501 136.502 171.903 134.904 171.903 132.933C171.903 130.961 173.501 129.363 175.473 129.363C177.444 129.363 179.042 130.961 179.042 132.933Z" fill="url(#paint68_linear_102_70)"/>
<path d="M200.459 132.933C200.459 134.904 198.861 136.502 196.89 136.502C194.919 136.502 193.32 134.904 193.32 132.933C193.32 130.961 194.919 129.363 196.89 129.363C198.861 129.363 200.459 130.961 200.459 132.933Z" fill="url(#paint69_linear_102_70)"/>
<path d="M29.1222 154.35C29.1222 156.321 27.5241 157.919 25.5527 157.919C23.5813 157.919 21.9832 156.321 21.9832 154.35C21.9832 152.379 23.5813 150.78 25.5527 150.78C27.5241 150.78 29.1222 152.379 29.1222 154.35Z" fill="url(#paint70_linear_102_70)"/>
<path d="M50.5394 154.35C50.5394 156.321 48.9413 157.919 46.9699 157.919C44.9985 157.919 43.4003 156.321 43.4003 154.35C43.4003 152.379 44.9985 150.78 46.9699 150.78C48.9413 150.78 50.5394 152.379 50.5394 154.35Z" fill="url(#paint71_linear_102_70)"/>
<path d="M71.9565 154.35C71.9565 156.321 70.3584 157.919 68.387 157.919C66.4156 157.919 64.8175 156.321 64.8175 154.35C64.8175 152.379 66.4156 150.78 68.387 150.78C70.3584 150.78 71.9565 152.379 71.9565 154.35Z" fill="url(#paint72_linear_102_70)"/>
<path d="M93.3737 154.35C93.3737 156.321 91.7756 157.919 89.8042 157.919C87.8328 157.919 86.2346 156.321 86.2346 154.35C86.2346 152.379 87.8328 150.78 89.8042 150.78C91.7756 150.78 93.3737 152.379 93.3737 154.35Z" fill="url(#paint73_linear_102_70)"/>
<path d="M114.791 154.35C114.791 156.321 113.193 157.919 111.221 157.919C109.25 157.919 107.652 156.321 107.652 154.35C107.652 152.379 109.25 150.78 111.221 150.78C113.193 150.78 114.791 152.379 114.791 154.35Z" fill="url(#paint74_linear_102_70)"/>
<path d="M136.208 154.35C136.208 156.321 134.61 157.919 132.638 157.919C130.667 157.919 129.069 156.321 129.069 154.35C129.069 152.379 130.667 150.78 132.638 150.78C134.61 150.78 136.208 152.379 136.208 154.35Z" fill="url(#paint75_linear_102_70)"/>
<path d="M157.625 154.35C157.625 156.321 156.027 157.919 154.056 157.919C152.084 157.919 150.486 156.321 150.486 154.35C150.486 152.379 152.084 150.78 154.056 150.78C156.027 150.78 157.625 152.379 157.625 154.35Z" fill="url(#paint76_linear_102_70)"/>
<path d="M179.042 154.35C179.042 156.321 177.444 157.919 175.473 157.919C173.501 157.919 171.903 156.321 171.903 154.35C171.903 152.379 173.501 150.78 175.473 150.78C177.444 150.78 179.042 152.379 179.042 154.35Z" fill="url(#paint77_linear_102_70)"/>
<path d="M50.5394 175.767C50.5394 177.738 48.9413 179.337 46.9699 179.337C44.9985 179.337 43.4003 177.738 43.4003 175.767C43.4003 173.796 44.9985 172.198 46.9699 172.198C48.9413 172.198 50.5394 173.796 50.5394 175.767Z" fill="url(#paint78_linear_102_70)"/>
<path d="M71.9565 175.767C71.9565 177.738 70.3584 179.337 68.387 179.337C66.4156 179.337 64.8175 177.738 64.8175 175.767C64.8175 173.796 66.4156 172.198 68.387 172.198C70.3584 172.198 71.9565 173.796 71.9565 175.767Z" fill="url(#paint79_linear_102_70)"/>
<path d="M93.3737 175.767C93.3737 177.738 91.7756 179.337 89.8042 179.337C87.8328 179.337 86.2346 177.738 86.2346 175.767C86.2346 173.796 87.8328 172.198 89.8042 172.198C91.7756 172.198 93.3737 173.796 93.3737 175.767Z" fill="url(#paint80_linear_102_70)"/>
<path d="M114.791 175.767C114.791 177.738 113.193 179.337 111.221 179.337C109.25 179.337 107.652 177.738 107.652 175.767C107.652 173.796 109.25 172.198 111.221 172.198C113.193 172.198 114.791 173.796 114.791 175.767Z" fill="url(#paint81_linear_102_70)"/>
<path d="M136.208 175.767C136.208 177.738 134.61 179.337 132.638 179.337C130.667 179.337 129.069 177.738 129.069 175.767C129.069 173.796 130.667 172.198 132.638 172.198C134.61 172.198 136.208 173.796 136.208 175.767Z" fill="url(#paint82_linear_102_70)"/>
<path d="M157.625 175.767C157.625 177.738 156.027 179.337 154.056 179.337C152.084 179.337 150.486 177.738 150.486 175.767C150.486 173.796 152.084 172.198 154.056 172.198C156.027 172.198 157.625 173.796 157.625 175.767Z" fill="url(#paint83_linear_102_70)"/>
<path d="M71.9565 197.184C71.9565 199.156 70.3584 200.754 68.387 200.754C66.4156 200.754 64.8175 199.156 64.8175 197.184C64.8175 195.213 66.4156 193.615 68.387 193.615C70.3584 193.615 71.9565 195.213 71.9565 197.184Z" fill="url(#paint84_linear_102_70)"/>
<path d="M93.3737 197.184C93.3737 199.156 91.7756 200.754 89.8042 200.754C87.8328 200.754 86.2346 199.156 86.2346 197.184C86.2346 195.213 87.8328 193.615 89.8042 193.615C91.7756 193.615 93.3737 195.213 93.3737 197.184Z" fill="url(#paint85_linear_102_70)"/>
<path d="M114.791 197.184C114.791 199.156 113.193 200.754 111.221 200.754C109.25 200.754 107.652 199.156 107.652 197.184C107.652 195.213 109.25 193.615 111.221 193.615C113.193 193.615 114.791 195.213 114.791 197.184Z" fill="url(#paint86_linear_102_70)"/>
<path d="M136.208 197.184C136.208 199.156 134.61 200.754 132.638 200.754C130.667 200.754 129.069 199.156 129.069 197.184C129.069 195.213 130.667 193.615 132.638 193.615C134.61 193.615 136.208 195.213 136.208 197.184Z" fill="url(#paint87_linear_102_70)"/>
<defs>
<linearGradient id="paint0_linear_102_70" x1="123.834" y1="220.077" x2="44.2094" y2="17.185" gradientUnits="userSpaceOnUse">
<stop stop-color="white"/>
<stop offset="1" stop-color="white" stop-opacity="0"/>
</linearGradient>
<linearGradient id="paint1_linear_102_70" x1="123.834" y1="220.077" x2="44.2094" y2="17.185" gradientUnits="userSpaceOnUse">
<stop stop-color="white"/>
<stop offset="1" stop-color="white" stop-opacity="0"/>
</linearGradient>
<linearGradient id="paint2_linear_102_70" x1="123.834" y1="220.077" x2="44.2094" y2="17.185" gradientUnits="userSpaceOnUse">
<stop stop-color="white"/>
<stop offset="1" stop-color="white" stop-opacity="0"/>
</linearGradient>
<linearGradient id="paint3_linear_102_70" x1="123.834" y1="220.077" x2="44.2094" y2="17.185" gradientUnits="userSpaceOnUse">
<stop stop-color="white"/>
<stop offset="1" stop-color="white" stop-opacity="0"/>
</linearGradient>
<linearGradient id="paint4_linear_102_70" x1="123.834" y1="220.077" x2="44.2094" y2="17.185" gradientUnits="userSpaceOnUse">
<stop stop-color="white"/>
<stop offset="1" stop-color="white" stop-opacity="0"/>
</linearGradient>
<linearGradient id="paint5_linear_102_70" x1="123.834" y1="220.077" x2="44.2094" y2="17.185" gradientUnits="userSpaceOnUse">
<stop stop-color="white"/>
<stop offset="1" stop-color="white" stop-opacity="0"/>
</linearGradient>
<linearGradient id="paint6_linear_102_70" x1="123.834" y1="220.077" x2="44.2094" y2="17.185" gradientUnits="userSpaceOnUse">
<stop stop-color="white"/>
<stop offset="1" stop-color="white" stop-opacity="0"/>
</linearGradient>
<linearGradient id="paint7_linear_102_70" x1="123.834" y1="220.077" x2="44.2094" y2="17.185" gradientUnits="userSpaceOnUse">
<stop stop-color="white"/>
<stop offset="1" stop-color="white" stop-opacity="0"/>
</linearGradient>
<linearGradient id="paint8_linear_102_70" x1="123.834" y1="220.077" x2="44.2094" y2="17.185" gradientUnits="userSpaceOnUse">
<stop stop-color="white"/>
<stop offset="1" stop-color="white" stop-opacity="0"/>
</linearGradient>
<linearGradient id="paint9_linear_102_70" x1="123.834" y1="220.077" x2="44.2094" y2="17.185" gradientUnits="userSpaceOnUse">
<stop stop-color="white"/>
<stop offset="1" stop-color="white" stop-opacity="0"/>
</linearGradient>
<linearGradient id="paint10_linear_102_70" x1="123.834" y1="220.077" x2="44.2094" y2="17.185" gradientUnits="userSpaceOnUse">
<stop stop-color="white"/>
<stop offset="1" stop-color="white" stop-opacity="0"/>
</linearGradient>
<linearGradient id="paint11_linear_102_70" x1="123.834" y1="220.077" x2="44.2094" y2="17.185" gradientUnits="userSpaceOnUse">
<stop stop-color="white"/>
<stop offset="1" stop-color="white" stop-opacity="0"/>
</linearGradient>
<linearGradient id="paint12_linear_102_70" x1="123.834" y1="220.077" x2="44.2094" y2="17.185" gradientUnits="userSpaceOnUse">
<stop stop-color="white"/>
<stop offset="1" stop-color="white" stop-opacity="0"/>
</linearGradient>
<linearGradient id="paint13_linear_102_70" x1="123.834" y1="220.077" x2="44.2094" y2="17.185" gradientUnits="userSpaceOnUse">
<stop stop-color="white"/>
<stop offset="1" stop-color="white" stop-opacity="0"/>
</linearGradient>
<linearGradient id="paint14_linear_102_70" x1="123.834" y1="220.077" x2="44.2094" y2="17.185" gradientUnits="userSpaceOnUse">
<stop stop-color="white"/>
<stop offset="1" stop-color="white" stop-opacity="0"/>
</linearGradient>
<linearGradient id="paint15_linear_102_70" x1="123.834" y1="220.077" x2="44.2094" y2="17.185" gradientUnits="userSpaceOnUse">
<stop stop-color="white"/>
<stop offset="1" stop-color="white" stop-opacity="0"/>
</linearGradient>
<linearGradient id="paint16_linear_102_70" x1="123.834" y1="220.077" x2="44.2094" y2="17.185" gradientUnits="userSpaceOnUse">
<stop stop-color="white"/>
<stop offset="1" stop-color="white" stop-opacity="0"/>
</linearGradient>
<linearGradient id="paint17_linear_102_70" x1="123.834" y1="220.077" x2="44.2094" y2="17.185" gradientUnits="userSpaceOnUse">
<stop stop-color="white"/>
<stop offset="1" stop-color="white" stop-opacity="0"/>
</linearGradient>
<linearGradient id="paint18_linear_102_70" x1="123.834" y1="220.077" x2="44.2094" y2="17.185" gradientUnits="userSpaceOnUse">
<stop stop-color="white"/>
<stop offset="1" stop-color="white" stop-opacity="0"/>
</linearGradient>
<linearGradient id="paint19_linear_102_70" x1="123.834" y1="220.077" x2="44.2094" y2="17.185" gradientUnits="userSpaceOnUse">
<stop stop-color="white"/>
<stop offset="1" stop-color="white" stop-opacity="0"/>
</linearGradient>
<linearGradient id="paint20_linear_102_70" x1="123.834" y1="220.077" x2="44.2094" y2="17.185" gradientUnits="userSpaceOnUse">
<stop stop-color="white"/>
<stop offset="1" stop-color="white" stop-opacity="0"/>
</linearGradient>
<linearGradient id="paint21_linear_102_70" x1="123.834" y1="220.077" x2="44.2094" y2="17.185" gradientUnits="userSpaceOnUse">
<stop stop-color="white"/>
<stop offset="1" stop-color="white" stop-opacity="0"/>
</linearGradient>
<linearGradient id="paint22_linear_102_70" x1="123.834" y1="220.077" x2="44.2094" y2="17.185" gradientUnits="userSpaceOnUse">
<stop stop-color="white"/>
<stop offset="1" stop-color="white" stop-opacity="0"/>
</linearGradient>
<linearGradient id="paint23_linear_102_70" x1="123.834" y1="220.077" x2="44.2094" y2="17.185" gradientUnits="userSpaceOnUse">
<stop stop-color="white"/>
<stop offset="1" stop-color="white" stop-opacity="0"/>
</linearGradient>
<linearGradient id="paint24_linear_102_70" x1="123.834" y1="220.077" x2="44.2094" y2="17.185" gradientUnits="userSpaceOnUse">
<stop stop-color="white"/>
<stop offset="1" stop-color="white" stop-opacity="0"/>
</linearGradient>
<linearGradient id="paint25_linear_102_70" x1="123.834" y1="220.077" x2="44.2094" y2="17.185" gradientUnits="userSpaceOnUse">
<stop stop-color="white"/>
<stop offset="1" stop-color="white" stop-opacity="0"/>
</linearGradient>
<linearGradient id="paint26_linear_102_70" x1="123.834" y1="220.077" x2="44.2094" y2="17.185" gradientUnits="userSpaceOnUse">
<stop stop-color="white"/>
<stop offset="1" stop-color="white" stop-opacity="0"/>
</linearGradient>
<linearGradient id="paint27_linear_102_70" x1="123.834" y1="220.077" x2="44.2094" y2="17.185" gradientUnits="userSpaceOnUse">
<stop stop-color="white"/>
<stop offset="1" stop-color="white" stop-opacity="0"/>
</linearGradient>
<linearGradient id="paint28_linear_102_70" x1="123.834" y1="220.077" x2="44.2094" y2="17.185" gradientUnits="userSpaceOnUse">
<stop stop-color="white"/>
<stop offset="1" stop-color="white" stop-opacity="0"/>
</linearGradient>
<linearGradient id="paint29_linear_102_70" x1="123.834" y1="220.077" x2="44.2094" y2="17.185" gradientUnits="userSpaceOnUse">
<stop stop-color="white"/>
<stop offset="1" stop-color="white" stop-opacity="0"/>
</linearGradient>
<linearGradient id="paint30_linear_102_70" x1="123.834" y1="220.077" x2="44.2094" y2="17.185" gradientUnits="userSpaceOnUse">
<stop stop-color="white"/>
<stop offset="1" stop-color="white" stop-opacity="0"/>
</linearGradient>
<linearGradient id="paint31_linear_102_70" x1="123.834" y1="220.077" x2="44.2094" y2="17.185" gradientUnits="userSpaceOnUse">
<stop stop-color="white"/>
<stop offset="1" stop-color="white" stop-opacity="0"/>
</linearGradient>
<linearGradient id="paint32_linear_102_70" x1="123.834" y1="220.077" x2="44.2094" y2="17.185" gradientUnits="userSpaceOnUse">
<stop stop-color="white"/>
<stop offset="1" stop-color="white" stop-opacity="0"/>
</linearGradient>
<linearGradient id="paint33_linear_102_70" x1="123.834" y1="220.077" x2="44.2094" y2="17.185" gradientUnits="userSpaceOnUse">
<stop stop-color="white"/>
<stop offset="1" stop-color="white" stop-opacity="0"/>
</linearGradient>
<linearGradient id="paint34_linear_102_70" x1="123.834" y1="220.077" x2="44.2094" y2="17.185" gradientUnits="userSpaceOnUse">
<stop stop-color="white"/>
<stop offset="1" stop-color="white" stop-opacity="0"/>
</linearGradient>
<linearGradient id="paint35_linear_102_70" x1="123.834" y1="220.077" x2="44.2094" y2="17.185" gradientUnits="userSpaceOnUse">
<stop stop-color="white"/>
<stop offset="1" stop-color="white" stop-opacity="0"/>
</linearGradient>
<linearGradient id="paint36_linear_102_70" x1="123.834" y1="220.077" x2="44.2094" y2="17.185" gradientUnits="userSpaceOnUse">
<stop stop-color="white"/>
<stop offset="1" stop-color="white" stop-opacity="0"/>
</linearGradient>
<linearGradient id="paint37_linear_102_70" x1="123.834" y1="220.077" x2="44.2094" y2="17.185" gradientUnits="userSpaceOnUse">
<stop stop-color="white"/>
<stop offset="1" stop-color="white" stop-opacity="0"/>
</linearGradient>
<linearGradient id="paint38_linear_102_70" x1="123.834" y1="220.077" x2="44.2094" y2="17.185" gradientUnits="userSpaceOnUse">
<stop stop-color="white"/>
<stop offset="1" stop-color="white" stop-opacity="0"/>
</linearGradient>
<linearGradient id="paint39_linear_102_70" x1="123.834" y1="220.077" x2="44.2094" y2="17.185" gradientUnits="userSpaceOnUse">
<stop stop-color="white"/>
<stop offset="1" stop-color="white" stop-opacity="0"/>
</linearGradient>
<linearGradient id="paint40_linear_102_70" x1="123.834" y1="220.077" x2="44.2094" y2="17.185" gradientUnits="userSpaceOnUse">
<stop stop-color="white"/>
<stop offset="1" stop-color="white" stop-opacity="0"/>
</linearGradient>
<linearGradient id="paint41_linear_102_70" x1="123.834" y1="220.077" x2="44.2094" y2="17.185" gradientUnits="userSpaceOnUse">
<stop stop-color="white"/>
<stop offset="1" stop-color="white" stop-opacity="0"/>
</linearGradient>
<linearGradient id="paint42_linear_102_70" x1="123.834" y1="220.077" x2="44.2094" y2="17.185" gradientUnits="userSpaceOnUse">
<stop stop-color="white"/>
<stop offset="1" stop-color="white" stop-opacity="0"/>
</linearGradient>
<linearGradient id="paint43_linear_102_70" x1="123.834" y1="220.077" x2="44.2094" y2="17.185" gradientUnits="userSpaceOnUse">
<stop stop-color="white"/>
<stop offset="1" stop-color="white" stop-opacity="0"/>
</linearGradient>
<linearGradient id="paint44_linear_102_70" x1="123.834" y1="220.077" x2="44.2094" y2="17.185" gradientUnits="userSpaceOnUse">
<stop stop-color="white"/>
<stop offset="1" stop-color="white" stop-opacity="0"/>
</linearGradient>
<linearGradient id="paint45_linear_102_70" x1="123.834" y1="220.077" x2="44.2094" y2="17.185" gradientUnits="userSpaceOnUse">
<stop stop-color="white"/>
<stop offset="1" stop-color="white" stop-opacity="0"/>
</linearGradient>
<linearGradient id="paint46_linear_102_70" x1="123.834" y1="220.077" x2="44.2094" y2="17.185" gradientUnits="userSpaceOnUse">
<stop stop-color="white"/>
<stop offset="1" stop-color="white" stop-opacity="0"/>
</linearGradient>
<linearGradient id="paint47_linear_102_70" x1="123.834" y1="220.077" x2="44.2094" y2="17.185" gradientUnits="userSpaceOnUse">
<stop stop-color="white"/>
<stop offset="1" stop-color="white" stop-opacity="0"/>
</linearGradient>
<linearGradient id="paint48_linear_102_70" x1="123.834" y1="220.077" x2="44.2094" y2="17.185" gradientUnits="userSpaceOnUse">
<stop stop-color="white"/>
<stop offset="1" stop-color="white" stop-opacity="0"/>
</linearGradient>
<linearGradient id="paint49_linear_102_70" x1="123.834" y1="220.077" x2="44.2094" y2="17.185" gradientUnits="userSpaceOnUse">
<stop stop-color="white"/>
<stop offset="1" stop-color="white" stop-opacity="0"/>
</linearGradient>
<linearGradient id="paint50_linear_102_70" x1="123.834" y1="220.077" x2="44.2094" y2="17.185" gradientUnits="userSpaceOnUse">
<stop stop-color="white"/>
<stop offset="1" stop-color="white" stop-opacity="0"/>
</linearGradient>
<linearGradient id="paint51_linear_102_70" x1="123.834" y1="220.077" x2="44.2094" y2="17.185" gradientUnits="userSpaceOnUse">
<stop stop-color="white"/>
<stop offset="1" stop-color="white" stop-opacity="0"/>
</linearGradient>
<linearGradient id="paint52_linear_102_70" x1="123.834" y1="220.077" x2="44.2094" y2="17.185" gradientUnits="userSpaceOnUse">
<stop stop-color="white"/>
<stop offset="1" stop-color="white" stop-opacity="0"/>
</linearGradient>
<linearGradient id="paint53_linear_102_70" x1="123.834" y1="220.077" x2="44.2094" y2="17.185" gradientUnits="userSpaceOnUse">
<stop stop-color="white"/>
<stop offset="1" stop-color="white" stop-opacity="0"/>
</linearGradient>
<linearGradient id="paint54_linear_102_70" x1="123.834" y1="220.077" x2="44.2094" y2="17.185" gradientUnits="userSpaceOnUse">
<stop stop-color="white"/>
<stop offset="1" stop-color="white" stop-opacity="0"/>
</linearGradient>
<linearGradient id="paint55_linear_102_70" x1="123.834" y1="220.077" x2="44.2094" y2="17.185" gradientUnits="userSpaceOnUse">
<stop stop-color="white"/>
<stop offset="1" stop-color="white" stop-opacity="0"/>
</linearGradient>
<linearGradient id="paint56_linear_102_70" x1="123.834" y1="220.077" x2="44.2094" y2="17.185" gradientUnits="userSpaceOnUse">
<stop stop-color="white"/>
<stop offset="1" stop-color="white" stop-opacity="0"/>
</linearGradient>
<linearGradient id="paint57_linear_102_70" x1="123.834" y1="220.077" x2="44.2094" y2="17.185" gradientUnits="userSpaceOnUse">
<stop stop-color="white"/>
<stop offset="1" stop-color="white" stop-opacity="0"/>
</linearGradient>
<linearGradient id="paint58_linear_102_70" x1="123.834" y1="220.077" x2="44.2094" y2="17.185" gradientUnits="userSpaceOnUse">
<stop stop-color="white"/>
<stop offset="1" stop-color="white" stop-opacity="0"/>
</linearGradient>
<linearGradient id="paint59_linear_102_70" x1="123.834" y1="220.077" x2="44.2094" y2="17.185" gradientUnits="userSpaceOnUse">
<stop stop-color="white"/>
<stop offset="1" stop-color="white" stop-opacity="0"/>
</linearGradient>
<linearGradient id="paint60_linear_102_70" x1="123.834" y1="220.077" x2="44.2094" y2="17.185" gradientUnits="userSpaceOnUse">
<stop stop-color="white"/>
<stop offset="1" stop-color="white" stop-opacity="0"/>
</linearGradient>
<linearGradient id="paint61_linear_102_70" x1="123.834" y1="220.077" x2="44.2094" y2="17.185" gradientUnits="userSpaceOnUse">
<stop stop-color="white"/>
<stop offset="1" stop-color="white" stop-opacity="0"/>
</linearGradient>
<linearGradient id="paint62_linear_102_70" x1="123.834" y1="220.077" x2="44.2094" y2="17.185" gradientUnits="userSpaceOnUse">
<stop stop-color="white"/>
<stop offset="1" stop-color="white" stop-opacity="0"/>
</linearGradient>
<linearGradient id="paint63_linear_102_70" x1="123.834" y1="220.077" x2="44.2094" y2="17.185" gradientUnits="userSpaceOnUse">
<stop stop-color="white"/>
<stop offset="1" stop-color="white" stop-opacity="0"/>
</linearGradient>
<linearGradient id="paint64_linear_102_70" x1="123.834" y1="220.077" x2="44.2094" y2="17.185" gradientUnits="userSpaceOnUse">
<stop stop-color="white"/>
<stop offset="1" stop-color="white" stop-opacity="0"/>
</linearGradient>
<linearGradient id="paint65_linear_102_70" x1="123.834" y1="220.077" x2="44.2094" y2="17.185" gradientUnits="userSpaceOnUse">
<stop stop-color="white"/>
<stop offset="1" stop-color="white" stop-opacity="0"/>
</linearGradient>
<linearGradient id="paint66_linear_102_70" x1="123.834" y1="220.077" x2="44.2094" y2="17.185" gradientUnits="userSpaceOnUse">
<stop stop-color="white"/>
<stop offset="1" stop-color="white" stop-opacity="0"/>
</linearGradient>
<linearGradient id="paint67_linear_102_70" x1="123.834" y1="220.077" x2="44.2094" y2="17.185" gradientUnits="userSpaceOnUse">
<stop stop-color="white"/>
<stop offset="1" stop-color="white" stop-opacity="0"/>
</linearGradient>
<linearGradient id="paint68_linear_102_70" x1="123.834" y1="220.077" x2="44.2094" y2="17.185" gradientUnits="userSpaceOnUse">
<stop stop-color="white"/>
<stop offset="1" stop-color="white" stop-opacity="0"/>
</linearGradient>
<linearGradient id="paint69_linear_102_70" x1="123.834" y1="220.077" x2="44.2094" y2="17.185" gradientUnits="userSpaceOnUse">
<stop stop-color="white"/>
<stop offset="1" stop-color="white" stop-opacity="0"/>
</linearGradient>
<linearGradient id="paint70_linear_102_70" x1="123.834" y1="220.077" x2="44.2094" y2="17.185" gradientUnits="userSpaceOnUse">
<stop stop-color="white"/>
<stop offset="1" stop-color="white" stop-opacity="0"/>
</linearGradient>
<linearGradient id="paint71_linear_102_70" x1="123.834" y1="220.077" x2="44.2094" y2="17.185" gradientUnits="userSpaceOnUse">
<stop stop-color="white"/>
<stop offset="1" stop-color="white" stop-opacity="0"/>
</linearGradient>
<linearGradient id="paint72_linear_102_70" x1="123.834" y1="220.077" x2="44.2094" y2="17.185" gradientUnits="userSpaceOnUse">
<stop stop-color="white"/>
<stop offset="1" stop-color="white" stop-opacity="0"/>
</linearGradient>
<linearGradient id="paint73_linear_102_70" x1="123.834" y1="220.077" x2="44.2094" y2="17.185" gradientUnits="userSpaceOnUse">
<stop stop-color="white"/>
<stop offset="1" stop-color="white" stop-opacity="0"/>
</linearGradient>
<linearGradient id="paint74_linear_102_70" x1="123.834" y1="220.077" x2="44.2094" y2="17.185" gradientUnits="userSpaceOnUse">
<stop stop-color="white"/>
<stop offset="1" stop-color="white" stop-opacity="0"/>
</linearGradient>
<linearGradient id="paint75_linear_102_70" x1="123.834" y1="220.077" x2="44.2094" y2="17.185" gradientUnits="userSpaceOnUse">
<stop stop-color="white"/>
<stop offset="1" stop-color="white" stop-opacity="0"/>
</linearGradient>
<linearGradient id="paint76_linear_102_70" x1="123.834" y1="220.077" x2="44.2094" y2="17.185" gradientUnits="userSpaceOnUse">
<stop stop-color="white"/>
<stop offset="1" stop-color="white" stop-opacity="0"/>
</linearGradient>
<linearGradient id="paint77_linear_102_70" x1="123.834" y1="220.077" x2="44.2094" y2="17.185" gradientUnits="userSpaceOnUse">
<stop stop-color="white"/>
<stop offset="1" stop-color="white" stop-opacity="0"/>
</linearGradient>
<linearGradient id="paint78_linear_102_70" x1="123.834" y1="220.077" x2="44.2094" y2="17.185" gradientUnits="userSpaceOnUse">
<stop stop-color="white"/>
<stop offset="1" stop-color="white" stop-opacity="0"/>
</linearGradient>
<linearGradient id="paint79_linear_102_70" x1="123.834" y1="220.077" x2="44.2094" y2="17.185" gradientUnits="userSpaceOnUse">
<stop stop-color="white"/>
<stop offset="1" stop-color="white" stop-opacity="0"/>
</linearGradient>
<linearGradient id="paint80_linear_102_70" x1="123.834" y1="220.077" x2="44.2094" y2="17.185" gradientUnits="userSpaceOnUse">
<stop stop-color="white"/>
<stop offset="1" stop-color="white" stop-opacity="0"/>
</linearGradient>
<linearGradient id="paint81_linear_102_70" x1="123.834" y1="220.077" x2="44.2094" y2="17.185" gradientUnits="userSpaceOnUse">
<stop stop-color="white"/>
<stop offset="1" stop-color="white" stop-opacity="0"/>
</linearGradient>
<linearGradient id="paint82_linear_102_70" x1="123.834" y1="220.077" x2="44.2094" y2="17.185" gradientUnits="userSpaceOnUse">
<stop stop-color="white"/>
<stop offset="1" stop-color="white" stop-opacity="0"/>
</linearGradient>
<linearGradient id="paint83_linear_102_70" x1="123.834" y1="220.077" x2="44.2094" y2="17.185" gradientUnits="userSpaceOnUse">
<stop stop-color="white"/>
<stop offset="1" stop-color="white" stop-opacity="0"/>
</linearGradient>
<linearGradient id="paint84_linear_102_70" x1="123.834" y1="220.077" x2="44.2094" y2="17.185" gradientUnits="userSpaceOnUse">
<stop stop-color="white"/>
<stop offset="1" stop-color="white" stop-opacity="0"/>
</linearGradient>
<linearGradient id="paint85_linear_102_70" x1="123.834" y1="220.077" x2="44.2094" y2="17.185" gradientUnits="userSpaceOnUse">
<stop stop-color="white"/>
<stop offset="1" stop-color="white" stop-opacity="0"/>
</linearGradient>
<linearGradient id="paint86_linear_102_70" x1="123.834" y1="220.077" x2="44.2094" y2="17.185" gradientUnits="userSpaceOnUse">
<stop stop-color="white"/>
<stop offset="1" stop-color="white" stop-opacity="0"/>
</linearGradient>
<linearGradient id="paint87_linear_102_70" x1="123.834" y1="220.077" x2="44.2094" y2="17.185" gradientUnits="userSpaceOnUse">
<stop stop-color="white"/>
<stop offset="1" stop-color="white" stop-opacity="0"/>
</linearGradient>
</defs>
</svg>
