<svg width="147" height="140" viewBox="0 0 147 140" fill="none" xmlns="http://www.w3.org/2000/svg">
<path d="M141.677 0.0415039L74.2617 32.0337C72.2345 30.6716 69.8485 29.942 67.4062 29.9374C64.1739 29.9374 61.074 31.2215 58.7884 33.5071C56.5028 35.7927 55.2188 38.8926 55.2188 42.1249C55.2188 45.3573 56.5028 48.4572 58.7884 50.7428C61.074 53.0284 64.1739 54.3124 67.4062 54.3124C73.8047 54.3124 79.1184 49.3582 79.5938 43.0756L116.54 25.556C127.6 30.2238 134.438 36.3176 134.438 42.1249C134.438 53.6238 108.375 66.4999 73.5 66.4999C38.6255 66.4999 12.5625 53.6238 12.5625 42.1249C12.5625 30.626 38.6255 17.7499 73.5 17.7499C74.5481 17.7499 75.4987 17.7256 76.5469 17.7499L98.0639 7.65869C89.9487 6.27623 81.7321 5.57504 73.5 5.56244C31.8187 5.56244 0.375 21.2721 0.375 42.1249V103.062C0.375 109.083 3.08672 114.61 7.23047 119.059C11.3742 123.507 17.0109 127.102 23.6105 130.107C36.7913 136.103 54.2437 139.625 73.5 139.625C92.7562 139.625 110.203 136.103 123.396 130.1C129.989 127.102 135.626 123.507 139.77 119.059C143.913 114.61 146.625 109.083 146.625 103.062V42.1249C146.625 33.1245 140.671 25.1234 130.629 18.8895L146.814 11.0895L141.677 0.0415039ZM12.5625 62.8803C18.7537 67.5481 27.0595 71.381 36.9375 74.1171V122.294C33.8906 121.344 31.1058 120.222 28.5586 119.059C23.0377 116.536 18.8208 113.513 16.1822 110.68C13.5375 107.846 12.5625 105.469 12.5625 103.062V62.8803ZM134.438 62.8803V103.062C134.438 105.469 133.462 107.846 130.818 110.68C128.179 113.513 123.962 116.53 118.441 119.059C115.894 120.222 113.109 121.344 110.062 122.294V74.1171C119.94 71.3749 128.246 67.5481 134.438 62.8803ZM49.125 76.7801C57.1839 78.084 65.3364 78.7219 73.5 78.6874C81.6636 78.7219 89.8161 78.084 97.875 76.7801V125.152C90.3797 126.554 82.1653 127.437 73.5 127.437C64.8347 127.437 56.6203 126.554 49.125 125.152V76.7801Z" fill="white"/>
</svg>
