<svg width="309" height="309" viewBox="0 0 309 309" fill="none" xmlns="http://www.w3.org/2000/svg">
<path opacity="0.5" d="M280.069 0.0118741C278.811 0.0118741 277.611 0.605626 276.353 1.86438L267.446 10.7706L263.741 7.05375L258.54 11.875L262.625 15.96L257.424 20.7931L253.719 17.0762L248.518 22.2775L252.234 25.9825L243.696 34.8887C241.143 37.4419 241.143 39.7575 243.696 42.3106L193.976 92.0431C182.884 83.1725 171.057 76.4512 159.835 73.1144C138.959 66.9394 120.41 71.3925 106.018 85.7256C99.6644 92.0787 95.7694 99.8331 94.1426 109.107C91.5538 124.141 78.2894 135.874 62.6026 136.942C45.4907 138.094 30.4569 144.97 19.1876 156.239C-10.5474 185.974 -5.15618 239.922 31.4307 276.474C52.2119 297.255 78.6932 308.014 103.061 308.014C121.609 308.014 138.816 301.566 151.665 288.717C162.946 277.436 169.81 262.414 170.962 245.302C172.031 229.627 183.395 216.351 198.429 213.75C207.703 212.135 215.826 208.24 222.179 201.875C236.512 187.542 240.965 168.946 234.79 148.081C232.748 141.111 229.09 134.021 224.779 126.92L207.323 144.364C209.188 147.927 210.767 151.371 211.788 154.755C215.446 167.093 213.498 177.151 205.471 185.179C202.597 188.017 199.177 189.584 194.712 190.38C169.014 194.833 148.981 217.372 147.212 243.817C146.476 255.087 142.106 264.836 134.969 272.021C114.461 292.469 75.8313 287.102 48.5069 259.766C21.1826 232.453 15.4351 193.384 35.8838 172.936C43.0801 165.787 52.8176 161.429 64.0869 160.692C90.5326 158.923 113.024 138.89 117.524 113.192C118.32 108.739 119.852 105.307 122.726 102.434C128.248 96.9119 134.553 94.2637 142.023 94.2637C145.407 94.2637 149.302 94.9644 153.149 96.1162C160.631 98.3487 168.967 102.754 176.899 108.739L137.201 148.449C132.848 147.448 128.326 147.441 123.97 148.428C119.614 149.416 115.536 151.373 112.041 154.154C108.546 156.935 105.722 160.468 103.781 164.491C101.84 168.514 100.83 172.922 100.828 177.389C100.828 193.752 114.14 207.064 130.516 207.064C146.891 207.064 160.203 193.752 160.203 177.377C160.203 175.572 159.788 173.897 159.455 172.176L267.446 63.8162C269.999 66.3694 272.695 66.3694 275.248 63.8162L284.154 54.91L287.859 58.6269L292.681 53.8056L288.976 50.0888L294.165 44.8994L296.766 50.0888L301.587 44.8994L297.882 41.1825L306.788 32.2762C309.341 29.7231 309.341 27.0394 306.788 24.4862L284.143 1.8525C283.071 0.737684 281.614 0.0749033 280.069 0V0.0118741ZM278.953 14.4638L284.154 19.665L261.141 42.3106L256.319 37.4894L278.953 14.4638ZM288.976 23.37L294.165 28.5712L271.163 51.205L266.33 46.0037L288.976 23.37ZM72.2569 197.434L55.5607 214.13L93.7744 252.344L110.471 235.647L72.2569 197.434Z" fill="white"/>
</svg>
