<svg width="122" height="124" viewBox="0 0 122 124" fill="none" xmlns="http://www.w3.org/2000/svg">
<path opacity="0.5" d="M95.6497 49.5997L72.4617 26.3497C72.1109 21.309 73.312 16.2817 75.9037 11.944C78.4953 7.60632 82.3531 4.16629 86.9582 2.08657C91.5632 0.00685882 96.6947 -0.612789 101.663 0.31097C106.63 1.23473 111.196 3.65759 114.746 7.25368C118.33 10.8124 120.742 15.3808 121.66 20.3477C122.577 25.3146 121.957 30.4433 119.88 35.0478C117.804 39.6522 114.371 43.5129 110.041 46.1134C105.711 48.7139 100.69 49.9302 95.6497 49.5997V49.5997ZM9.46969 94.8597L66.5097 37.8817L84.0557 55.4277L27.0157 112.468L9.53169 94.8597H9.46969ZM0.789692 112.406L13.8717 99.2617L22.6757 108.066L9.53169 121.21L0.727692 112.406H0.789692ZM59.9997 92.9997L72.3997 80.5997V124H59.9997V92.9997Z" fill="white"/>
</svg>
