<svg width="140" height="144" viewBox="0 0 140 144" fill="none" xmlns="http://www.w3.org/2000/svg">
<path opacity="0.5" fill-rule="evenodd" clip-rule="evenodd" d="M140 27.9998C139.999 23.9632 139.126 19.9745 137.44 16.307C135.754 12.6395 133.295 9.37994 130.231 6.75173C127.167 4.12351 123.571 2.18879 119.69 1.08016C115.809 -0.0284704 111.734 -0.28479 107.744 0.328766L58.744 7.86777C52.1327 8.88451 46.1037 12.2345 41.7484 17.3114C37.3931 22.3883 34.9992 28.8567 35 35.5458V96.8868C30.2038 94.6117 24.7983 93.956 19.5972 95.0183C14.3961 96.0806 9.6807 98.8035 6.16071 102.777C2.64073 106.751 0.506579 111.76 0.0794562 117.051C-0.347666 122.343 0.955345 127.63 3.79239 132.116C6.62944 136.603 10.847 140.047 15.8104 141.93C20.7738 143.813 26.2144 144.033 31.3135 142.556C36.4126 141.08 40.8942 137.987 44.084 133.744C47.2737 129.501 48.9989 124.336 49 119.028V35.5458C48.998 32.2 50.1941 28.9642 52.3719 26.4242C54.5497 23.8843 57.5652 22.2083 60.872 21.6998L109.872 14.1608C111.868 13.8539 113.906 13.9823 115.848 14.5372C117.789 15.0921 119.587 16.0604 121.119 17.3757C122.651 18.6909 123.881 20.322 124.723 22.157C125.566 23.9921 126.001 25.9876 126 28.0068V75.8868C121.204 73.6117 115.798 72.956 110.597 74.0183C105.396 75.0806 100.681 77.8035 97.1607 81.7771C93.6407 85.7507 91.5066 90.7602 91.0795 96.0514C90.6523 101.343 91.9553 106.63 94.7924 111.116C97.6294 115.603 101.847 119.047 106.81 120.93C111.774 122.813 117.214 123.033 122.314 121.556C127.413 120.08 131.894 116.987 135.084 112.744C138.274 108.501 139.999 103.336 140 98.0278V28.0068V27.9998ZM126 98.0278C126 95.243 124.894 92.5723 122.925 90.6032C120.956 88.634 118.285 87.5278 115.5 87.5278C112.715 87.5278 110.045 88.634 108.075 90.6032C106.106 92.5723 105 95.243 105 98.0278C105 100.813 106.106 103.483 108.075 105.452C110.045 107.422 112.715 108.528 115.5 108.528C118.285 108.528 120.956 107.422 122.925 105.452C124.894 103.483 126 100.813 126 98.0278ZM35 119.028C35 117.649 34.7284 116.284 34.2008 115.01C33.6731 113.736 32.8997 112.578 31.9246 111.603C30.9496 110.628 29.7921 109.855 28.5182 109.327C27.2443 108.799 25.8789 108.528 24.5 108.528C23.1211 108.528 21.7558 108.799 20.4818 109.327C19.2079 109.855 18.0504 110.628 17.0754 111.603C16.1004 112.578 15.327 113.736 14.7993 115.01C14.2716 116.284 14 117.649 14 119.028C14 121.813 15.1063 124.483 17.0754 126.452C19.0445 128.422 21.7152 129.528 24.5 129.528C27.2848 129.528 29.9555 128.422 31.9246 126.452C33.8938 124.483 35 121.813 35 119.028Z" fill="white"/>
</svg>
